<svg enable-background="new 0 0 25 25" viewBox="0 0 25 25" xmlns="http://www.w3.org/2000/svg"><g clip-rule="evenodd" fill-rule="evenodd"><ellipse cx="12.5" cy="12.58" fill="#195225" rx="12.21" ry="12.04"/><g fill="#fff"><path d="m4.04 6.83c.47.13 1.12.37 1.8.8.75.47 1.27 1 1.6 1.39-.09.39-.53.86-.69 1.4-.2.66-.24.85-.75 1.36-.97.99-3.01.49-3.5.81.19.5 1.25.47 1.71.43 1.71-.14 2 .4 2.7 1.79.24.48.71 1.05.75 1.56l-1.98.94c-.36.14-1.37.48-2.08 0-.48-.33-.73-.97-1.14-2.03-.03-.07-.1-.25-.15-.41-.45-1.39-.13-2.92.16-4.24.19-.88.37-1.67.87-2.64.26-.5.51-.89.7-1.16z"/><path d="m14.92 18.29c.73-.57 1.7-1.26 2.68-1.05.6.13 1.02.06 1.53.38.41.26.7.66 1.18.8-.14-.57-1.3-1.62-1.78-2.1-.2-1.19-.65-1.18-.29-2.47 3.34-.13.76-.26 4.2.18-.11 1.87-1.11 3.6-2.2 5.02-.92 1.18-2.9 2.83-4.29 2.99-.23-.42-.95-3.2-1.03-3.75z"/><path d="m20.09 6.69c-1.6.48-1.46 3.22-4.96.61.14-.54 1.74-3.3 2.22-3.62.74.38 1.74 1.02 2.68 2.06 1.87 2.08 2.27 4.44 2.37 5.42l-3.89.76c-.07-.8-.31-2.54.13-3.12.5-.65 1.42-1.11 1.45-2.11z"/><path d="m5.94 5c.62-.48 1.47-1.03 2.55-1.49.8-.34 1.54-.56 2.16-.7.1.25.72 1.86-.13 3.47-.51.96-1.28 1.45-1.64 1.64-.45-.71-.92-1.12-1.27-1.36-.33-.23-.67-.41-1.09-.84-.27-.27-.46-.53-.58-.72z"/><path d="m16.27 9.15c.96.33 1.48 2.73 1.3 3.64-.24 1.23-.68 2.67-1.74 3.38-.53-.74.04-6.09.44-7.02z"/><path d="m11.42 5.19c-.01-.24-.01-.5 0-.76.02-.56.06-1.09.13-1.57.47-.1 1.07-.2 1.78-.19.66 0 1.24.09 1.68.19-.19.65-.44 1.37-.79 2.14-.26.58-.54 1.1-.81 1.56-1.38.12-1.31-.72-1.99-1.37z"/><path d="m10.1 21.87c0-.15.05-2.08 1.46-2.86.36-.2.72-.28 1.04-.3.33.51.51 3.28.47 3.97-.38-.01-.87-.05-1.41-.19-.66-.16-1.18-.41-1.56-.62z"/><path d="m12.37 7.47c-.31.64-3.97 3.7-4.78 4.06.03-1.08.74-2.14 1.56-2.75.21-.16.32-.53 1.31-.91.68-.26 1.15-.41 1.91-.4z"/><path d="m7.5 12.38c.43-.39 1.22-.87 1.71-1.23 1.04-.77 2.3-1.9 3.26-2.78.52-.47 1.15-1.25 1.84-.56-.23.44-6.21 4.95-6.82 5.13z"/><path d="m15.09 8.27.39-.02c.01.39-.28 1.5-.35 1.98-.17 1.22-.47 3.39-.44 4.53.01.48.29 1.95.13 2.23-1.05.32-.52-3.58-.49-4.23.05-.79.33-4.04.76-4.49z"/><path d="m6.5 19.78c.45-.5.98-1.01 1.61-1.52.19-.16.39-.3.58-.44l1.35.64c.08.26.14.58.12.96-.05 1.21-.84 2.02-1.09 2.26-.36-.16-.78-.39-1.23-.7-.58-.41-1.02-.84-1.34-1.2z"/><path d="m7.71 14.16c.89-.5 5.74 1.69 6 3.31-.6.07-.4-.09-1.4-.9-1.3-1.04-2.4-1.35-3.88-1.96-.46-.19-.64 0-.72-.45z"/><path d="m18.47 12.94c.07-.39.29-.39.71-.46.48-.08 2.92-.73 3.22-.46.33.29-.1 1.26-1.42 1.11-.51-.06-2.33-.08-2.51-.19z"/><path d="m8.39 15.38c.92.22 3.43 1.39 3.8 2.21-1.18.13-3.47-1.02-3.8-2.21z"/><path d="m14.07 22.57c-.01-.74-.06-1.57-.18-2.46-.08-.62-.19-1.19-.31-1.72l.46-.18c.08 1.02.3 1.79.49 2.3.33.89.72 1.47.48 1.82-.19.26-.63.27-.94.24z"/><path d="m11.34 12.51c-.04-.35.18-.95.4-1.25.26-.36.94-.35 1.1.14.3.94-.77 1.99-1.5 1.11z"/><path d="m8.35 13.41c.19-.48 1.07-1.05 1.59-1.21.1.68.22 1.07.39 1.7z"/><path d="m5.08 5.72c.56-.1.95.53 1.32.84.4.36.87.76 1.08 1.26-.26-.06-1.18-.66-1.49-.86-.55-.33-1.24-.54-.91-1.24z"/><path d="m12.5 10.31c.23-.33 1.14-1.03 1.52-1.1l-.18 1.71c-.33-.12-.13-.14-1.12-.49-.18-.06-.11-.04-.22-.12z"/><path d="m12.02 14.76c.02-.02.05-.02.06-.05s.05-.03.06-.04c.11-.04.12-.04.23-.07.91-.26.66-.32 1.08-.47l-.02 1.43c-.38-.06-1.11-.57-1.41-.8z"/><path d="m15.96 3.05c.23.09.46.18.7.26-.35.39-.73.85-1.11 1.39-.33.48-.6.94-.83 1.36.13-.42.29-.86.47-1.33.26-.6.52-1.17.77-1.68z"/><path d="m4.91 18.65c.63-.43 1.41-.87 2.34-1.24.33-.13.64-.24.95-.33-.2.2-.4.4-.62.6-.68.63-1.35 1.17-2 1.62-.22-.22-.45-.43-.67-.65z"/><path d="m11.01 13.25c.82.14.82.21 1.72.18-.38.76-1.6.51-1.72-.18z"/></g></g></svg>