<?xml version="1.0" encoding="utf-8"?>
<!-- Generator: Adobe Illustrator 24.0.1, SVG Export Plug-In . SVG Version: 6.00 Build 0)  -->
<svg version="1.1" id="Layer_1" xmlns="http://www.w3.org/2000/svg" xmlns:xlink="http://www.w3.org/1999/xlink" x="0px" y="0px"
	 viewBox="0 0 25 25" style="enable-background:new 0 0 25 25;" xml:space="preserve">
<style type="text/css">
	.st0{fill-rule:evenodd;clip-rule:evenodd;fill:#195225;stroke:transparent;stroke-miterlimit:10;}
	.st1{fill-rule:evenodd;clip-rule:evenodd;fill:#FFFFFF;}
	.st2{fill:#FFFFFF;}
</style>
<g>
	<ellipse class="st0" cx="12.69" cy="12.41" rx="11.82" ry="11.66"/>
	<path class="st1" d="M16.46,4.39c-0.97,0.41,1.3,2.83,2.15,1.82c-0.23-0.53-0.59,0.08-1.71-1.25C16.72,4.74,16.65,4.49,16.46,4.39
		L16.46,4.39z M21.17,9.46c-1.1-0.55-0.63,2.96,0.39,2.37c0.12-0.34-0.18-0.75-0.28-1.11C21.15,10.21,21.36,9.81,21.17,9.46
		L21.17,9.46z M18.09,12.97c-0.14-1.88,0.96-1.32,1.03-1.97c-0.47-0.11-0.78,0.05-1.27-0.17c-0.19-0.14-0.32-0.91-1.1-1.74
		c-0.8-0.86-0.48-1.09-0.53-2.16c-0.59-0.02-0.26,0.48-0.86,0.78c-0.61,0.3-1.34,0.02-1.25-0.88c0.12-1.14,0.41-2.8,1.01-3.33
		c1.7-1.49,1.8,1.29,3.59,1.74c0.63,0.16,0.4,0.21,0.84,0.46c0.02,0.01,1.35,0.25,0.43,1.51c-1.11,1.53-2.56,1.87-2.58,2.45
		c0.17,0.12,2.14-1.14,2.86-1.38c0.43-0.14,1.5-0.38,1.89-0.12c0.39,0.26-0.09,1.38-0.18,1.77c-0.45,1.89,1.71,2.46,0.14,3.1
		C21.43,13.32,18.81,13.22,18.09,12.97z"/>
	<path class="st1" d="M9.71,21.83c0.1-0.11,1.1-0.45-0.14-1.65c-0.76-0.74-1.8-0.62-1.84-0.02c0.55,0.42,0.76-0.14,1.26,0.46
		c0.22,0.27,0.57,0.7,0.64,1.05c-0.4-0.1-0.56-0.64-2.07-0.53c-2.41,0.17-0.5-3.03-0.15-3.36c0.33-0.32,1.04-1.24,1.38-1.4
		c0.23,0.13,1.04,0.69,1.12,0.91c0.25,0.66,0.1,1.08,0.02,1.74c0.51-0.15,0.64-0.97,1.02-1.34c0.17,0.01,1.59,0.26,1.71,0.3
		c0.04,0.93,0.05,2.18-0.34,3.03c-0.3,0.66-0.9,1.68-1.74,1.64C10.35,22.52,9.87,22.11,9.71,21.83z"/>
	<path class="st1" d="M8.52,3.53c0.84,1.04,2.54,0.83,3.38,0.07c0.14-0.12,0.17-0.22,0.18-0.4c-0.45-0.46-0.76,0.02-1.75,0.2
		C9.57,3.55,8.62,2.75,8.52,3.53L8.52,3.53z M11.32,5.96c-0.31,0.32,0.05,0.63-0.46,1.23c-0.28,0.34-0.45,0.76-0.91,0.82
		c-0.27-0.25-0.82-1.15-1.02-1.5c-0.31-0.54-2.19-2.7-1.2-3.32c1.06-0.67,0.99-0.4,2.08-0.37c1.67,0.06,2.98-1.59,3.74,0.23
		c0.28,0.67,0.19,2.28-0.13,3.37C12.67,8.9,11.44,6.04,11.32,5.96z"/>
	<path class="st1" d="M18.29,19.93c-0.9-0.26-2.13-0.26-2.71,0.6c-0.18,0.26-0.35,0.52-0.23,0.81c0.21,0.12,0.13,0.08,0.4,0.07
		c0.52-0.66,0.61-0.98,2-1.01C18.21,20.39,18.27,20.37,18.29,19.93L18.29,19.93z M13.14,18c0.29-0.14,1.57-0.55,1.67-0.07
		c0.03,0.13-0.01,0.1,0.03,0.25c0.11,0.4,0.64,0.69,1.04,0.68c0.33-0.64-0.41-0.59-0.2-1.42c0.11-0.41,0.05-0.43,0.37-0.66
		c0.94-0.69,0.28-0.74,1.57,0.34c0.35,0.3,0.66,0.6,0.98,0.9c0.5,0.47,1.14,2.3,0.43,2.67c-0.37,0.19-1.04-0.42-2.33,0.5
		c-0.61,0.43-1.02,1.16-1.9,1.05c-0.85-0.1-1.07-0.92-1.3-1.65C13.36,20.17,13.11,18.43,13.14,18z"/>
	<path class="st1" d="M3.49,9.98c0.95,0.02,1.31-0.16,1.77-0.94c0.42-0.7,0.36-1.35-0.27-1.77C4.87,7.46,4.73,8.39,4.48,8.84
		C4.16,9.45,3.59,9.54,3.49,9.98L3.49,9.98z M3.4,10.77c-0.34-0.18-0.54-0.52-0.52-0.89C2.89,9.4,3.29,9.14,3.33,9.11
		c0.48-0.39,1.01-0.89,1.19-1.83c0.21-1.1-0.31-1.75,1.49-1.31c0.59,0.14,1.19,0.4,1.58,0.65c0.46,0.29,1.76,1.23,2.02,1.61
		C9.42,8.55,8.77,9,8.39,9.14c-0.56,0.19-1.24-0.39-1.61-0.4c0.02,0.48,0.35,0.45,0.71,0.73c0.2,0.64,0.11,1.12-0.26,1.62
		C6.87,11.57,4.73,11.3,3.4,10.77z"/>
	<path class="st1" d="M22.01,15.21c-0.86-0.23-1.89,1.79-1.4,2.27c0.66,0.64,0.73-0.92,0.76-1.02
		C21.54,15.85,22.07,15.71,22.01,15.21L22.01,15.21z M16.96,15.98c0.32-1.15,1.67-0.01,2.18-0.29c0.03-0.41-0.31-0.32-0.65-0.57
		c-0.12-0.09-0.56-0.52-0.65-0.65c0.01-0.27,0.13-0.86,0.3-1.05c1.36,0.3,2.69,0.36,4.09,0.49c0.81,0.17,1.05,0.64,0.52,1.34
		c-0.56,0.75-0.58,0.72-0.67,1.67c-0.05,0.5-0.2,1.38-0.72,1.56c-0.51,0.17-1.5-0.01-1.95-0.29c-0.45-0.27-0.24-0.28-0.54-0.62
		c-0.22-0.24-0.41-0.34-0.62-0.54C17.86,16.66,17.24,16.3,16.96,15.98z"/>
	<path class="st1" d="M12.36,13.81c-1.1-0.35-1.13-1.97,0.01-2.51c0.49-0.23,0.65-0.1,1.13-0.03
		C15.05,11.52,14.45,14.49,12.36,13.81z"/>
	<path class="st1" d="M8.08,11.78c-0.1-0.98,0.53-1.19,1.37-1.08c0.5,0.06,1.17,0.65,1.55,1.01l-0.08,0.44
		c-0.26,0.09-1.21,0.01-1.54-0.01C8.86,12.1,8.45,12.18,8.08,11.78z"/>
	<path class="st1" d="M11.4,11.22c-0.4-0.05-0.35-0.2-0.65-0.46c-0.58-0.49-1.03-0.57-1.03-1.15c0-0.28,0.11-0.66,0.35-0.82
		C11.17,8.06,11.94,10.61,11.4,11.22z"/>
	<path class="st1" d="M13.21,14.61l0.73-0.25c0.1,0.18,0.83,1.5,0.83,1.56c0.05,0.52-0.5,1.25-1.11,1.18
		C13.24,16.7,13.16,15.18,13.21,14.61z"/>
	<path class="st1" d="M12.09,14.43l0.69,0.14c-0.02,0.49-0.07,1.37-0.3,1.76c-0.28,0.47-0.77,0.87-1.36,0.7
		C10.85,16.4,11.61,14.82,12.09,14.43z"/>
	<path class="st1" d="M8.27,14.11c-0.17-1.13,1.78-1.29,2.55-1.19c0.11,0.21,0.15,0.35,0.13,0.58C10.24,13.96,9.03,14.86,8.27,14.11
		z"/>
	<path class="st1" d="M12.84,7.87c0.22,0.36,0.35,2.09,0.22,2.46c-0.18,0.13-0.6,0.21-0.88,0.23C11.92,9.77,11.33,7.77,12.84,7.87z"
		/>
	<path class="st1" d="M14.44,13.96c0.33-0.15,2.6,0.36,1.83,1.54C15.71,16.38,14.35,14.44,14.44,13.96z"/>
	<path class="st1" d="M15.08,12.42l-0.11-0.57c0.46-0.5,1.8-1,2.29-0.37c0.04,0.62-0.32,0.66-0.81,0.79
		C16.08,12.37,15.42,12.59,15.08,12.42z"/>
	<path class="st1" d="M11.33,13.94l0.3,0.21c-0.11,0.46-1.51,2.11-2.06,1.78c-0.5-0.3,0.22-1.08,0.47-1.25
		C10.27,14.52,11.11,14,11.33,13.94z"/>
	<path class="st1" d="M13.7,10.56c0.05-0.62,0.06-1.1,0.26-1.71c0.23-0.69,0.69-0.65,1-0.03c-0.04,0.33-0.62,1.62-0.83,1.93
		L13.7,10.56z"/>
	<path class="st1" d="M14.53,11.13c0.1-0.36,0.61-0.76,0.88-1.06c0.88-0.92,1.85-0.08,0.49,0.85c-0.24,0.16-0.97,0.42-1.23,0.39
		L14.53,11.13z"/>
	<path class="st1" d="M14.88,13.37l0.06-0.43c0.35-0.06,0.87-0.08,1.23-0.1c0.47-0.03,0.79-0.2,1.03,0.25
		C17.34,13.88,15.24,13.6,14.88,13.37z"/>
	<path class="st1" d="M7.73,12.41l1.04,0.32c-0.04,0.1-0.83,0.54-0.93,0.56L7.73,12.41z"/>
	<path class="st1" d="M16.52,14.33c0.07-0.05,0.04-0.04,0.16-0.08l0.64-0.13c-0.03,0.31-0.18,0.71-0.42,0.89L16.52,14.33z"/>
	<path class="st1" d="M12.7,16.78l0.34,0.65l-0.88,0.04C12.17,17.22,12.51,16.95,12.7,16.78z"/>
	<path class="st1" d="M8.64,10.14c0.02-0.31,0.24-0.56,0.5-0.66l0.1,0.67L8.64,10.14z"/>
	<path class="st1" d="M15.56,8.71c0.23,0.03,0.38,0.2,0.46,0.39c-0.19,0.16-0.37,0.31-0.6,0.38L15.56,8.71z"/>
	<path class="st1" d="M15.13,16.27c0.29-0.01,0.33,0,0.54,0.14c-0.11,0.22-0.41,0.39-0.67,0.44L15.13,16.27z"/>
	<path class="st1" d="M9.91,16.48l0.57-0.33l-0.06,0.74C10.22,16.86,10.01,16.68,9.91,16.48z"/>
	<path class="st1" d="M10.87,8.24c0.22-0.16,0.38-0.21,0.66-0.21l-0.22,0.48C11.08,8.45,10.99,8.42,10.87,8.24z"/>
	<path class="st1" d="M8.39,14.92l0.47,0.06c0.03,0.28,0.05,0.17-0.08,0.4C8.5,15.32,8.47,15.19,8.39,14.92z"/>
	<path class="st1" d="M13.59,7.9l0.34,0.03c-0.03,0.25-0.02,0.27-0.22,0.39C13.55,8.11,13.58,8.19,13.59,7.9z"/>
	<path class="st1" d="M16.84,10.69l0.25-0.26l0.19,0.32C17.07,10.83,16.99,10.81,16.84,10.69z"/>
	<path class="st2" d="M8.17,15.49L7.8,14.87c-1.42-0.42-1.9,0.4-2.4,0.09c0.14-0.39,0.84-0.21,1.51-1.16
		c0.46-0.64,0.46-1.28,0.46-2.05c-0.3-0.07-0.82,0.07-1.17,0.09c-0.47,0.03-0.95-0.04-1.38-0.02c-0.01,0-0.01,0-0.02,0
		C3.37,12,2.34,12.49,2.3,13.04c-0.03,0.39,0.42,0.95,0.48,1.02c0.53,0.53,0.69,0.78,0.87,1.26c0.14,0.38,0.13,0.73,0.1,0.95
		c-0.03,0.15-0.06,0.38-0.08,0.65c-0.03,0.56-0.05,1.15,0.2,1.42c0.28,0.29,0.86,0.21,1.37,0.05c0.09-0.03,0.18-0.06,0.27-0.09
		c0,0,0,0,0,0c0.63-0.21,1.23-0.56,1.61-0.94c0.33-0.33,0.69-0.65,1.03-0.97C8.62,15.94,8.52,16.06,8.17,15.49z M4.05,16.33
		c-0.02-0.03-0.01-0.09,0.01-0.19c0.02-0.08,0.03-0.12,0.06-0.2c0.32-1.01,0.21-1.41,0.04-1.59c-0.07-0.07-0.24-0.22-0.39-0.48
		c-0.05-0.09-0.09-0.2-0.1-0.36c0.5-0.37,1.32,0.38,1.28,1.5c-0.02,0.45-0.11,1.09-0.49,1.28C4.33,16.36,4.1,16.41,4.05,16.33z"/>
</g>
</svg>
