<svg enable-background="new 0 0 25 25" viewBox="0 0 25 25" xmlns="http://www.w3.org/2000/svg"><g clip-rule="evenodd" fill-rule="evenodd"><ellipse cx="12.58" cy="12.66" fill="#195225" rx="12.29" ry="12.13"/><g fill="#fff"><path d="m11.28 15.46c1.68.65 3.34-.49 4.21-1.9.95-1.55-.13-3.48-1.77-3.82-2.59-.53-5.97 1.42-4.28 4.43.42.73 1.08.99 1.84 1.29zm.31 1.73c-2.33-1.19-3.21-1.97-3.6-4.77-.19-1.38.8-2.57 2.35-3.56 2.1-1.35 5.35-1.54 6.69.8 1.74 3.05-.7 7.25-4.3 7.56-.37.04-.75.03-1.14-.03z"/><path d="m11.06 12.37c.4-.89 1.27-1.4 2.48-1.31 1.4 1.06.04 2.96-1.32 3.22-1.38.26-1.64-.84-1.16-1.91z"/><path d="m13.71 18.1.65-.28c.27.3 1.24 3.85 1.35 4.44-.6.37-1.52.81-2.28.55z"/><path d="m10.45 22.6c.12-1.35.99-3.05 1.09-4.51l.87.14-.18 4.61c-.64.13-1.21.05-1.78-.24z"/><path d="m2.98 9.3c1.02.74 2.79 1.13 3.89 1.95l.48-.74-3.37-2.7c-.52.4-.83.89-1 1.49z"/><path d="m6.53 4.19c.57-.49 1.2-.86 1.94-.95.3.93 1.6 3.23 1.46 3.99-.62.35-.53.22-1-.28-.3-.32-.53-.55-.81-.89-.49-.59-1.37-1.16-1.59-1.87z"/><path d="m7.44 21.5c0-.6 2.09-3.59 2.6-3.8.41.38-.5 4.01-.77 4.61-.61-.05-1.36-.43-1.83-.81z"/><path d="m16.17 16.94c.72.03.47.18 1.37 1.41.43.59.96 1.08 1.32 1.68-.38.53-1.02 1.26-1.72 1.31-.43-.63-1.24-3.82-.97-4.4z"/><path d="m18.01 15.89c1.31.29 2.06.62 3.51.75.09.64-.82 2.06-1.31 2.5-.72-.22-2.07-2.45-2.2-3.25z"/><path d="m5.2 5.12 3.04 2.93c-.1.42-.5.82-.87 1.05-.95-.56-3.42-2.72-2.17-3.98z"/><path d="m13.28 2.53c.76-.01 1.55.1 2.22.45.01.36-1.41 3.22-1.65 3.41-.38-.49-.54-3.05-.57-3.86z"/><path d="m9.76 2.79c.15-.1.1-.11.38-.19.53-.15 1.12-.2 1.63-.04l.27 3.83c-.83-.1-.87-.8-1.26-1.61-.24-.53-.9-1.62-1.02-1.99z"/><path d="m15.71 6.86c.07-.64.95-2.73 1.31-3.19.47.01.9.38 1.33.63-.1.69-1.33 2.38-1.87 2.84z"/><path d="m5.17 19.98c.16-1.1 2.62-3.63 3.16-3.16.34.67-.47 1.35-.91 1.87-.49.57-.86 1.34-1.5 1.68z"/><path d="m19.41 12.38c.13-.63.68-.69 1.34-.98.43-.19 1.17-.55 1.58-.65.31.52.35 1.36.24 2.01-.71.28-2.61.09-3.16-.38z"/><path d="m6.58 14.12c-.18.63-.88.66-1.72.93-.54.17-1.5.5-2.01.59-.37-.53-.39-1.38-.23-2.02.9-.26 3.29.01 3.96.5z"/><path d="m21.12 7.34c.4.52.8 1.27.89 1.94-.7.38-2.09 1.01-2.85.9-.15-.84.29-.9.82-1.57.36-.46.66-.95 1.14-1.27z"/><path d="m19.05 14.17c.51-.15 2.6.05 3.29.1.06.53.11.62-.14 1.05-.58.27-3.23-.24-3.15-1.15z"/><path d="m6.53 12.85c-.64.09-3.14-.44-3.96-.6 0-.61-.05-.72.32-1.16.73-.23 3.87.74 3.64 1.76z"/><path d="m7.44 15.87c-.41.49-2.55 1.88-3.24 2.35-.38-.37-.48-.41-.5-.94.38-.64 3.27-2.2 3.74-1.41z"/><path d="m18.01 8.16c-.12-.36 1.08-2.43 1.4-2.78 1.37.65.68 1.26-.14 2.07-.44.45-.76 1.03-1.26.71z"/></g></g></svg>