<svg enable-background="new 0 0 25 25" viewBox="0 0 25 25" xmlns="http://www.w3.org/2000/svg"><g clip-rule="evenodd" fill-rule="evenodd"><ellipse cx="12.57" cy="12.63" fill="#195225" rx="12.07" ry="11.9"/><g fill="#fff"><path d="m10.41 19.77c4.37 1.12 8.98-1.18 10.3-5.43.9-2.89.14-4.27-1-6.62-1.09-2.25-2.46-2.47-4.79-2.9-1.97-.36-4.9-.39-6.51.88-5.05 3.99-6.05 12.01 2 14.07zm-.98 2.09c-13.37-3.54-3.61-22.72 6.74-18.61 2.89 1.15 3.77 1.76 5.25 4.45 1.33 2.44 1.76 5.21.51 7.83-2.1 4.36-7.76 7.58-12.5 6.33z"/><path d="m11.76 7.3c-.53 2.9-3.32 2.3-2.32 6.75 2.55 3.19 7.92.98 7.12-3.86-.84-1.41-3.12-1.98-3.64-3.27 3.24-.33 4.83 2.28 4.55 5.23-.32 3.32-2.18 4.54-5.29 5.07-6.04 1.04-8.82-8.47-.42-9.92z"/><path d="m13.3 10.21c.11 1.33.15 2.05-1.29 2.21-.35-1.5-.14-1.87 1.29-2.21z"/></g></g></svg>