<svg enable-background="new 0 0 25 25" viewBox="0 0 25 25" xmlns="http://www.w3.org/2000/svg"><g clip-rule="evenodd" fill-rule="evenodd"><ellipse cx="12.5" cy="12.74" fill="#195225" rx="12.02" ry="11.85"/><g fill="#fff"><path d="m11.57 15.99c1.84.32 3.73-.93 4.28-2.67.63-1.98-.93-3.6-2.64-4.14-1.95-.61-3.94 1.28-4.28 2.54-.55 2.1.56 3.92 2.64 4.27zm-4.98-.03c.34-.64 1.43-1.09 1.67-2.92.09-.68-.07-1.25-.38-1.84-.5-.93-.98-.88-.99-1.27 3.02-.08 3.48-.65 3.8-3.11.53.17.84 1.63 2.64 1.65 1.58.02 2.25-.95 3.15-1.24-.19.78-.47 1.18-.39 2.07.21 2.44 2.73 2.79 4.74 2.73-.55.53-1.96.52-3.35 1.58-1.47 1.12-1.32 1.95-1.17 3.65-.74-.15-1.78-1.07-3.12-.13-1.04.73-1.33 1.89-1.77 2.36-.23-.26-.41-1.01-.61-1.43-.22-.47-.53-.92-.84-1.32-.2-.26-1-.73-1.37-.78-.9-.12-1.17-.05-2.01 0z"/><path d="m22.43 12.42c-.09.3-.77 1.14-1 1.59-.3.58-.71 1.13-.99 1.75-.58 1.31-1.08 2.79-1.26 4.22-.2-.06-1.44-1.77-1.64-2.09-.59-.92-.77-2-.32-3.02.59-1.34 4.79-2.44 5.21-2.45z"/><path d="m3.91 9.36c.31 0 .94.35 1.26.49 1.23.53 2.4 1.66 2.22 3.15-.13 1.08-.54 1.69-1.26 2.4-.54.53-1.5 1.3-2.31 1.45.35-2.32.78-2.9.32-5.66-.06-.42-.28-1.49-.23-1.83z"/><path d="m3.83 8.41c.17-.27.44-.28.77-.43.28-.13.56-.28.83-.42.93-.49 1.85-1.42 2.7-2.11.49-.4.74-.91 1.13-1.28.24.24.53 2.13.56 2.57.21 4.26-5.37 2.19-5.99 1.67z"/><path d="m18.48 5.6c.2.29.46 1.3.59 1.71.26.78 1.4 2.12 2.04 2.62.32.25 1.11.79 1.34 1.04-.45.33-4.1.98-5.12-.58-.49-.75-.48-1.94-.11-2.74.18-.43.93-1.87 1.26-2.05z"/><path d="m18.19 20.31c-.57.03-1.07-.04-1.71.03-2.32.24-4.26 1.15-4.79 1.16.09-1.15 1.32-4.06 2.63-4.11 1.51-.05 2.75 1.69 3.12 2.01.28.25.75.49.75.91z"/><path d="m10.43 3.94c1.17.24 1.47.94 3.06.99.63.02 1.13.18 1.74.25.71.08 1.4-.05 2.06.01-.22.72-2.8 2.77-4.05 2.71-1.87-.1-2.58-2.38-2.81-3.96z"/><path d="m4.94 17.2c.91-.66 3.25-1.16 4.41.09.78.84 1.54 3.29 1.37 4.44-.12-.08-.75-1.16-1.03-1.46-.4-.43-.87-.87-1.31-1.27-.97-.88-3.22-1.6-3.44-1.8z"/><path d="m4.25 17.9c.7.06 2.66 1.09 3.26 1.55.54.41 2.11 1.85 2.23 2.55-1.62-.14-4.99-2.62-5.49-4.1z"/><path d="m10.93 3.26c.77-.46 2.82-.23 3.73-.09.59.09 2.83.68 3.07 1.19-.81.25-4.62.03-5.46-.38-.35-.18-1.1-.48-1.34-.72z"/><path d="m11.81 22.35c.98-.7 5.08-1.6 6.28-1.35-.09.36-2.23 1.09-2.68 1.2-.69.17-1.93.31-2.67.3l-.82-.08c-.02-.01-.05-.03-.06-.04-.01 0-.03-.02-.05-.03z"/><path d="m22.81 13.46c.07 1.17-.4 2.31-.83 3.34-.24.58-1.16 2.32-1.74 2.45-.01-.97 1.78-5.34 2.57-5.79z"/><path d="m19.38 5.46c.95.26 2.65 3 2.99 4.43-.78-.1-2.24-2.1-2.53-2.94-.16-.45-.37-1.03-.46-1.49z"/><path d="m3.12 10.24c.39.62.61 5.12.08 5.67-.34-.71-.53-1.96-.49-2.77.02-.62.09-2.51.41-2.9z"/><path d="m8.25 4.12c-.06.51-1.32 1.41-1.73 1.8-.6.57-1.31 1.23-2.16 1.48.12-.76 3.04-3.03 3.89-3.28z"/><path d="m11.33 12.22c.26-.49.64-.62 1.18-.58.3.55.37 1.05-.18 1.47-.69.05-.88-.25-1-.89z"/><path d="m12.56 13.81c.48-.02.39.08.66.43.2.26.39.36.52.66-.42.29-.94.41-1.46.43z"/><path d="m13.41 13.05c.41-.04 1.15 0 1.48.18-.04.37-.27.82-.56 1.03-.25-.14-.91-.88-.92-1.21z"/><path d="m10.84 14.96c.15-.42.47-1.17.97-1.13.09.47-.2.95-.29 1.41-.33-.03-.44-.04-.68-.28z"/><path d="m10.84 10.39c.23-.25.53-.5.86-.45.05.33.11.89-.02 1.13-.35.18-.74-.38-.84-.68z"/><path d="m12.48 9.78c.41.03.75.09.96.45-.1.16-.53.68-.72.71-.31.03-.23-.91-.24-1.16z"/><path d="m13.99 10.58c.3.09.5.33.56.64-.37.15-.77.28-1.17.28-.08-.36-.06-.28.18-.54.19-.18.2-.27.43-.38z"/><path d="m9.89 13.9c.22-.24.61-.62.87-.67l.19.24c-.07.33-.45.9-.78.99z"/><path d="m13.66 12.22c.21-.3.96-.49 1.27-.36.1.25.08.38.04.66-.31-.01-1.09-.12-1.31-.3z"/><path d="m9.6 12.15.69.11c.32.12.1.03.23.13-.07.34-.52.65-.84.66z"/><path d="m9.91 11.39c.04-.27.05-.35.27-.52.25.13.63.47.63.74-.29.19-.65-.02-.9-.22z"/></g></g></svg>