<svg enable-background="new 0 0 25 25" viewBox="0 0 25 25" xmlns="http://www.w3.org/2000/svg"><g clip-rule="evenodd" fill-rule="evenodd"><ellipse cx="12.5" cy="12.47" fill="#195225" rx="12.16" ry="12"/><g fill="#fff"><path d="m11.94 17.98c-.44 0-.73.87-1.06 1.16-.33-.07-.66-.25-.88-.48.21-1.13.79-1.02.93-1.72-.59.12-1 .76-1.51 1.06-.22-.14-.41-.4-.53-.63.18-.53 1.09-.97 1.11-1.29-.4-.29-.83.28-1.4.26l-.1-.58c.46-.2.9-.21.92-.71l-.95.05.11-.68c.36-.05.6.01.77-.3-.15-.31-.27-.28-.6-.32.01-.38.12-.67.3-.97.51.07.18.36.79.25.02-.52-.2-.75-.29-1.18.22-.34.94-.92 1.35-1.02.06.37.06 1.39.22 1.67.67-.22.39-1.62.43-1.98.38-.09.79-.16 1.17-.1.06.52-.52 1.36-.42 1.94.38-.07.39-.44.66-.74.28-.3.42-.45.6-.85.36.06.56.28.65.63-.33.31-.99.75-1 1.22.52-.02.92-.58 1.36-.66.33.98-.64 2.25-1.55 2.56-2.4.84-1.74-1.21-2.74-1.31-.76.17-.4 2.94 2.76 3.07 1.7.07 3.13-1.31 3.8-2.7.65-1.37.34-4.01-.45-5.3-.9-1.48-3.46-2.59-3.54-2.82.49-.1 1.08-.2 1.57-.28.52-.08.96-.27 1.45-.37-.05.33-.16.37-.11.73 1.07.04 2.05-1.65 2.51-1.69.29.06 1.04.51 1.25.72-.12.25-1.08.72-1.84 1.56-.51.56-.47.29-.55.59.85.24 2.7-.88 3.61-1.07.21.26.53.57.58.92-.58.46-3.02 1.52-3.12 1.77 1.04.15 2.73-.2 3.84-.24.12.37.19.49.18.9-.81.26-3.23.33-3.8.79.16.42 3.29.77 3.84.84.05.34.04.89-.12 1.19-.57.15-3.29-.63-3.9-.28-.07.44 3.02 1.51 3.48 1.7-.02.33-.19.67-.35.96-1.13.11-2.72-1.14-3.26-.97l-.08.32c.77.51 1.87.93 2.71 1.52-.01.34-.24.6-.47.85-.75.02-2.03-.91-2.69-.85.07.43 1.33 1.55 1.68 1.93-.12.36-.8.87-1.16.93-.24-.31-1.61-1.49-1.94-1.51-.21.63.86 1.56 1.01 2.19l-1.1.57c-.68-.78-.47-2.22-1.3-2.01.02.59.25 1.64.32 2.31-.48.17-.57.18-1.07.08-.11-.42.03-1.69-.27-2.11-.4.08-.84 1.75-.98 2.16l-.9-.03c-.12-.56.28-1.11.07-1.65z"/><path d="m3.79 7.7c.48-.75.96-1.51 1.44-2.26.66-.61 1.66-1.39 3.01-2.01.5-.23 1.6-.69 3.08-.91 1.26-.19 2.23-.13 2.44-.11.82.06 2.1.25 3.56.91-.18.22-.45.52-.83.79-.39.28-.77.44-1.05.54-.72-.25-1.75-.53-3.03-.65-.74-.07-1.53-.15-2.56 0-.48.07-1.73.29-3.12 1.07-1.51.85-2.44 1.94-2.94 2.63z"/><path d="m3.82 8.41c.49.25 3.27 1.75 3.64 1.49-.21-.7-2.15-2.14-2.67-2.81.23-.34.35-.4.66-.64.89.67 2.08 1.91 3.03 2.37.05-.25-1.35-2.51-1.57-3.22.24-.25.68-.33 1-.43.64.67 1.52 2.65 2.36 2.93.1-.29-.02-.05-.11-.8-.15-1.12-.67-2.06-.63-2.33.29-.06 1.17 0 1.44.12.36.29.2 2.24 1.11 2.81.24-.27.18-.36.32-.66.35.36.6.77.98 1.13.36.34.79.77 1.13 1.12-.21.15-2.94-.4-4.52.31-1.38.62-3.14 2.61-3.38 4.11-.24 1.52.15 3.46 1.59 4.38.12.08.23.13.35.2l.04 3.42c-.08-.02-.15-.04-.22-.07-.1-.42.15-1.3-.21-1.55-.48.33-.46 1.02-.86 1.41l-.76-.48c.12-.41.71-2.04.42-2.34-.48.17-1.08 1.3-1.42 1.58-.47-.21-.54-.27-.84-.68.44-.52 1.22-1.25 1.57-1.72-.56-.64-1.21.66-2.21.92l-.56-1.09c.48-.44 1.89-.59 2.07-1.23-.28-.17-2.08.02-2.46.14-.27-.25-.53-1.06-.43-1.42.5-.12 2.18-.32 2.48-.63-.51-.43-2.09-.39-2.7-.83-.05-.34-.09-.68.09-.97 1.03-.01 2.17.27 3.1.29l.11-.31c-.34-.45-2.36-.32-3.24-1.06.04-.33.08-.71.25-.99.49.1 3.64.98 3.83.58-.31-.64-2.98-1.54-3.37-1.99.05-.35.36-.81.59-1.06z"/><path d="m11.64 20.4c-.51-.15-1.32-.46-2.19-1.13 0 .86.01 1.71.01 2.57.72.3 1.89.68 3.38.72.46.01 1.87.02 3.54-.58 2.85-1.02 4.44-3.06 4.98-3.83.87-1.24 1.29-2.42 1.51-3.18.01-1.08.02-2.17.03-3.25-.25 1.16-1.23 5.12-4.28 7.26-.87.61-1.76.97-1.92 1.03-.78.28-2.78 1.06-5.06.39z"/></g></g></svg>