<svg enable-background="new 0 0 25 25" viewBox="0 0 25 25" xmlns="http://www.w3.org/2000/svg"><g clip-rule="evenodd" fill-rule="evenodd"><ellipse cx="12.58" cy="12.91" fill="#195225" rx="12.25" ry="12.09"/><g fill="#fff"><path d="m14.57 11.96c-.93-2.93-5.29-1.86-4.46 1.43.31 1.24 1.62 1.84 2.83 1.52 1.16-.3 1.99-1.8 1.63-2.95zm-2.71 5.3c-5.9-1.02-4.21-9.42 1.26-8.37 2.33.45 3.9 2.43 3.57 4.86-.27 2.07-2.75 3.87-4.83 3.51z"/><path d="m13.62 6.63c-.39.09-.41 1.35-1.1 1.6-.5.18-.47-.25-.56-.67-.14-.63-.23-1.29-.38-1.9-.11-.44-.35-1.27-.45-1.93-.09-.6.01-.99.47-1.13.6-.18.83.26 1.51.43.5.12 1.06.17 1.44.18.72.02 2.91-.31 2.33 1.02-.44 1-1.38 2.91-1.92 4.23-.15.38-.08.42-.53.28-1.15-.35-.4-1.41-.81-2.11z"/><path d="m6.19 6.09c.82.9 2.55 3.13 2.69 3.6l-.57.7c-.69.01-1.44-.53-1.77-.49-.01.51.58.67.84 1 .26.32.3.63.26.95-.07.6-.05.66-.6.5-.7-.2-1.8-.7-2.3-.84-1.16-.33-2.53-.51-2.3-1.49.18-.76 1.44-1.06 1.8-2 .39-.99.16-1.85 1.08-2.17.52-.18.53-.13.87.24z"/><path d="m12.54 22.48c-.02-1.22.17-4.04.38-4.47l.89-.14c.53.43.73 1.34 1 1.53.34-.38.01-.89.03-1.31.02-.41.19-.67.44-.88.45-.4.47-.46.78.03.39.61.88 1.72 1.16 2.16.65 1.01 1.55 2.06.73 2.64-.63.45-1.78-.16-2.68.3-.94.49-1.34 1.28-2.24.91-.51-.22-.48-.26-.49-.77z"/><path d="m3.92 17.74c.2-.47.79-.49 2.59-1.03.64-.19.96-.29 1.05-.33.33-.17.56-.35.85-.3.2.04.34.16.42.26-.01.3-.01.66-.13 1.04-.1.29-.2.52-.18.64.28.09 1.08-.59 1.32-.85.34.02.67.19.96.35-.02.11-.06.28-.12.48-.15.47-.33.79-.4.91-.41.75-.44 1.14-1.18 2.57-.27.53-.39.72-.62.78-.13.03-.4.06-1.14-.53-.56-.44-.62-.63-1.18-1.16-.1-.1-.58-.5-1.52-1.3-.38-.33-.74-.63-.78-1.09 0-.08-.01-.25.06-.44z"/><path d="m11.73 11.83c-1.51.16-.49 2.42.96 1.76 1.24-.56.78-2.64-.21-2.32-.12.3-.03.3.1.43.38.39-.21 1.15-.67.91-.24-.11-.24-.4-.18-.78zm.15 2.58c-1.3-.35-1.93-2.25-.6-3.19.39-.27.99-.42 1.46-.31.93.22 1.45 1.32 1.2 2.25-.22.83-1.22 1.47-2.06 1.25z"/><path d="m2.32 15.58c.25-.14 2.37-.18 2.89-.24.72-.09 2.02-.22 2.73-.28.12.18.28.38.29.59-1.13.3-2.28.55-3.41.97-.53.2-1.21.37-1.73.2-.44-.16-.91-.74-.77-1.24z"/><path d="m19.25 4.79c.24.15.7.67.87.91-.17.43-2.27 2.64-2.86 3.3-.32.36-.62 1-1.13 1.04.01-.51.45-.97.67-1.41.21-.42.54-.92.78-1.33.3-.47 1.36-2.31 1.67-2.51z"/><path d="m21.85 18.96c-.14.25-.65.73-.88.9-.44-.16-2.71-2.18-3.39-2.75-.37-.31-1.02-.58-1.08-1.09.51-.01.98.41 1.44.63.42.2.94.5 1.35.74.48.26 2.35 1.26 2.56 1.57z"/><path d="m2.02 14.2c-.06-.43-.27-.8.14-.73.35.06.86.19 1.12.24l2.88.32c.42.01 1.24-.08 1.55.12-.02.34-.13.39-1.05.48-.85.08-3.6.22-4.24.12-.44-.08-.34-.13-.4-.55z"/><path d="m1.88 12.29.02-.47c.03-.78.71-.18 1.3.03.45.16 3.64.99 3.81 1.44-.75.07-3.64-.16-4.77-.52-.4-.13-.37-.11-.36-.48z"/><path d="m17.78 3.84c.31.06.68.25.88.48-.05.31-1.3 2.14-1.57 2.54-.27.41-1.29 2.36-1.63 2.44-.2-.3.21-1 .35-1.35.36-.92 1.53-3.39 1.97-4.11z"/><path d="m20.71 6.21c.23.18.58.53.67.79-.14.24-4.33 3.67-4.65 3.82.02-.13.75-1.04.9-1.21.34-.4.68-.77 1.02-1.17.28-.33 1.84-2.16 2.06-2.23z"/><path d="m22.45 17.32c-.08.26-.28.69-.48.87-.27-.03-4.82-2.39-5.06-2.61.13-.03 1.2.27 1.41.33.48.15.93.3 1.41.45.39.13 2.57.8 2.72.96z"/><path d="m10.32 3.52c.22.65.43 1.55.55 2.01l.42 2.19c.07.32.21.35.21.63-.33-.04-.93-1.74-1.3-2.47-.13-.25-.76-1.58-1.04-2.25-.19-.44.09-.6.49-.67.54-.09.49.03.67.56z"/><path d="m7.66 3.78c.46-.24.58-.29.83.13.62 1.05 2.06 4.24 2.1 4.73-.39-.07-.51-.44-.89-1.1-.41-.69-1.55-2.34-2.06-3.17-.26-.43-.35-.4.02-.59z"/><path d="m9.91 23.22c-.49-.17-.61-.22-.48-.68.33-1.17 1.63-4.42 1.96-4.79.22.33.03.68-.18 1.4-.22.77-.62 2.73-.87 3.67-.12.49-.04.54-.43.4z"/><path d="m6.22 4.65c.39-.38.53-.29.81.06.46.57.9 1.4 1.27 1.94.26.38.52.8.75 1.2.2.35.7.93.55 1.29-.38.07-.66-.66-.88-.95l-2.38-2.93c-.24-.29-.41-.33-.12-.61z"/><path d="m11.5 23.5c-.55 0-.58-.17-.53-.61.08-.73.35-1.62.47-2.27.08-.45.19-.93.31-1.38.1-.39.15-1.15.52-1.3.32.21 0 .93-.04 1.3l-.38 3.75c-.05.37.05.52-.35.51z"/><path d="m20 20.72c-.35.42-.5.34-.81.02-.51-.52-1.04-1.3-1.46-1.8-.3-.35-.6-.74-.87-1.11-.24-.32-.79-.85-.67-1.23.37-.11.72.59.98.85l2.66 2.67c.25.27.42.29.17.6z"/><path d="m23.16 12.83c-.05-.03-.1-.05-.15-.07.06-.04.11-.09.15-.14 0 0 .06-.07.09-.17.14-.35 0-.81 0-.81-.11-.38-.23-.5-.49-1 0 0-.56-1.09-.56-1.88.01-.26.04-.69-.24-.92-.12-.1-.27-.14-.38-.14-1.4 1.19-2.19 1.85-2.66 2.24-.13.11-.49.41-.97.82-.24.2-.7.6-.91.81.13.65.4.92.6 1.05.47.29 1 .08 1.77.51.14.07.24.15.3.19-.83.05-1.43.06-1.85.04-.09 0-.26-.02-.42.09-.2.14-.27.41-.33.69-.05.26-.08.53-.06.69l.48.22c.75.35 4.62 2.1 5.42 1.02.05-.07.08-.15.15-.32.7-1.7.13-2.87.06-2.92z"/></g></g></svg>