<svg enable-background="new 0 0 25 25" viewBox="0 0 25 25" xmlns="http://www.w3.org/2000/svg"><g clip-rule="evenodd" fill-rule="evenodd"><ellipse cx="12.58" cy="12.57" fill="#195225" rx="12.16" ry="12"/><g fill="#fff"><path d="m12.96 3.78c-.19-.16-.89-1.21-.98-1.48.4-.17 1.84.14 2.33.23-.18.38-.94 1.11-1.35 1.25z"/><path d="m18.26 6.22c.39-.17 1.31-.32 1.71-.18l-.46 1.55c-.29-.16-1.16-1.07-1.25-1.37z"/><path d="m2.89 9.83c.35-.25.93-.31 1.37-.18l-.39 1.52c-.42-.19-.95-.89-.98-1.34z"/><path d="m20.73 9.62c-.28-.21-.64-.91-.66-1.27.35-.27 1.07-.21 1.49-.04-.14.45-.47 1.02-.83 1.31z"/><path d="m20.32 7.4.44-1.42c.53.16.81 1.03 1.02 1.46-.34.13-1.03.07-1.46-.04z"/><path d="m18.1 5.23.37-1.19c.39.16 1.22.66 1.39.99-.43.18-1.25.3-1.76.2z"/><path d="m21.96 11.53c.26-.3.75-.61 1.14-.58.17.43.05 1.15-.04 1.62-.43-.2-.94-.62-1.1-1.04z"/><path d="m2.7 15.26c.18-.35.53-.85.87-.96.16.19.61 1.51.57 1.76z"/><path d="m6.51 6.45c-.34-.27-.66-1.25-.53-1.64.51.12 1.04.38 1.32.83z"/><path d="m15.81 3.86-.25-1.04 1.91.59c-.18.27-.35.31-.73.38-.31.05-.62.11-.93.07z"/><path d="m8.32 4.98.3-1.49c.38.21.72.61.92 1.01-.2.21-1 .61-1.22.48z"/><path d="m4.73 8.68c-.33-.38-.73-1.02-.6-1.5l1.3.39z"/><path d="m9.33 2.95c.22-.22.88-.35 1.21-.32l-.19 1.47c-.35-.21-.78-.85-1.02-1.15z"/><path d="m13.86 4.19c.18-.38.65-.84 1.01-1.06.22.29.25.92.16 1.27-.34.07-.8-.09-1.17-.21z"/><path d="m16.13 4.8c.33-.16 1.15-.4 1.51-.37l-.34 1.09c-.43-.13-.96-.39-1.17-.72z"/><path d="m21.63 9.62.71-1.1c.24.31.45 1.25.46 1.6z"/><path d="m2.37 11.99.14-1.25c.35.2.79.75.81 1.14-.28.21-.73.34-.95.11z"/><path d="m2.8 12.68.93-.18c.16.33.14.88 0 1.2-.22-.1-.9-.55-.93-1.02z"/><path d="m11.1 4.1.11-1.13c.43.16.82.68.87 1.07-.37.12-.57.16-.98.06z"/><path d="m21.35 11.31c-.19-.34-.24-.62-.11-.98.47-.05.69.07 1.11.24-.16.23-.72.64-1 .74z"/><path d="m4.56 6.36c.16-.4.33-.53.6-.82.29.22.43.79.43 1.16z"/><path d="m21.42 13.72c-.14-.43-.07-.82.02-1.25.41.19.61.32.78.75z"/><path d="m22.68 16.13c-.01.45-.21.79-.44 1.17-.32-.32-.47-.51-.49-.97z"/><path d="m6.81 4.17c.2-.3.7-.61 1.02-.61l-.2 1.14z"/><path d="m2.36 14.35c-.2-.35-.21-.86-.17-1.26l.75.62c-.09.31-.31.53-.58.64z"/><path d="m3.12 8.8.28-.75c.31.2.34.28.3.66z"/><path d="m19.74 9.18c-1.06-2.17-2.79-3.2-3.4-3.53-2.25-1.21-4.41-.97-5.27-.82-2.91.52-4.58 2.44-5.01 2.97 0 0-.79 1-1.31 2.55-.03.08-.06.17-.09.28-.01.03-.02.06-.03.09-.02.06-.03.11-.05.17-.04.15-.18.69-.25 1.25-.01.11-.06.54-.02 1.13v.05c.05 1 .33 1.88.33 1.88.1.29.22.61.39.96s.35.65.53.91c.03.05.06.1.09.14.3.45.76 1.08 1.47 1.71.62.49 1.83 1.33 3.56 1.66 1.08.2 1.97.15 2.34.11 3.25-.3 6.27-2.55 7.13-5.41.04-.15.08-.29.11-.44.18-.63.75-3.06-.52-5.66zm-2.57 7.15c-.28.36-.62.67-1.1 1.03-.72.55-2.14 1.25-3.03 1.33-1.86.16-3.99-.92-5.28-2.59-.08-.09-.16-.22-.24-.34-.04-.06-.08-.12-.12-.18-.06-.1-.12-.21-.18-.32-.05-.09-.1-.17-.14-.26-.09-.18-.17-.38-.24-.6-.02-.06-.04-.12-.05-.19-.07-.22-.12-.45-.16-.7 0-.01 0-.02-.01-.03-.02-.15-.03-.3-.03-.46 0-.06 0-.11 0-.17 0-.71.14-1.42.4-2.1 0 0 .01-.03.03-.05.79-1.96 2.57-3.6 4.57-3.92 1.61-.26 3.28.35 3.95.81.38.26.77.61.77.61.07.06.57.51.92.98.2.26.36.54.49.8.2.45.42 1.05.53 1.77.04.27.07.52.08.76v.17c.01.74-.1 1.35-.21 1.78-.05.18-.11.36-.18.55-.27.66-.61 1.11-.77 1.32z"/><path d="m15.1 21.26c-.15.2-.57 1.39-.6 1.68.43.07 1.75-.58 2.21-.79-.27-.33-1.18-.86-1.61-.89z"/><path d="m19.77 17.62c.42.07 1.35 0 1.7-.24l-.82-1.38c-.25.22-.88 1.31-.88 1.62z"/><path d="m3.88 18.14c.4.16.97.08 1.37-.16l-.74-1.38c-.37.29-.71 1.09-.63 1.54z"/><path d="m21.27 14.3c-.22.27-.4 1.04-.34 1.39.41.18 1.09-.05 1.45-.32-.24-.41-.7-.87-1.11-1.07z"/><path d="m19.73 18.61.65 1.07c.34-.25 1.02-.94 1.11-1.3-.46-.07-1.28.01-1.76.23z"/><path d="m8.19 20.23c-.26.34-.33 1.37-.12 1.72.47-.25.92-.62 1.08-1.13z"/><path d="m17.84 20.5.01 1.07 1.71-1.04c-.24-.22-.42-.21-.8-.19-.31.03-.63.04-.92.16z"/><path d="m10.3 21.22.65 1.37c.32-.31.55-.77.65-1.21-.24-.15-1.11-.34-1.3-.16z"/><path d="m5.93 18.49c-.23.45-.47 1.17-.22 1.59l1.16-.69z"/><path d="m11.77 22.95c.26.16.94.13 1.25.02l-.53-1.39c-.29.29-.56 1.01-.72 1.37z"/><path d="m15.87 20.65c.26.32.84.66 1.24.79.14-.34.02-.96-.15-1.27-.35 0-.76.27-1.09.48z"/><path d="m17.92 19.51c.36.07 1.21.11 1.56-.01l-.59-.97c-.38.23-.84.61-.97.98z"/><path d="m22.03 14.02.95.9c.15-.36.14-1.32.06-1.67z"/><path d="m2.64 16.34.44 1.17c.29-.28.59-.92.51-1.3-.32-.12-.79-.14-.95.13z"/><path d="m13.21 21.4.38 1.07c.38-.26.63-.85.58-1.24-.38-.04-.59-.03-.96.17z"/><path d="m6.32 20.79c.25.35.45.44.78.65.23-.28.22-.87.14-1.23z"/><path d="m9.04 22.36c.27.24.83.42 1.14.35l-.48-1.05z"/><path d="m4.34 18.76.45.66c.25-.28.26-.36.13-.71z"/><path d="m17.2 13.08c-.03-.08-.09-.15-.17-.2s0 0-.01 0c-.01-.01-.02-.01-.03-.02-.22-.14-.42-.21-.55-.23-.45-.08-.74.1-1.15-.06-.13-.05-.23-.12-.28-.17-.17-1 1.57-.55 1.68-1.65.07-.71-.62-1.01-1.09-.67-.61.43-1.14 1.31-1.49.7-.11-.36 1.26-1.67.61-2.24-.48-.43-.78-.27-1.06.19-.35.58-.69 1.39-1.05 1.52-.43-.42.22-.96-.15-1.92-.19-.48-.61-.74-1.04-.65-.45.09-.56.29-.46.72.09.39.36.38.58.98.22.62.29 1.16-.6 1.1-.46-.44-.49-.93-.85-1.33-.32-.37-.49-.48-.82-.19-1.44 1.23.62 1.48 1.22 2.23-.02.19-.08.47-.29.6-.59.37-1.72-.89-2.32-.51-.28.18-.32.64-.34.87-.01.19-.06.77.22.92.4.22 1.26-.58 1.74-.45.17.04.29.14.29.14.18.11.22.2.22.26.01.27-.66.51-1.41 1.04-.08.06-.29.21-.38.48 0 .01 0 .02-.01.03 0 .01-.01.01-.01.03v.04c0 .02 0 .05-.01.08v.01c0 .02-.01.05 0 .07.03.29.3.45.35.48.22.13.44.13.5.12.8-.04 1.19-1.18 1.59-1.07.11.03.14.15.2.28.09.7-1.37 1.17-1.26 1.83.06.38.6.63.68.67.16.08.28.1.38.07.16-.05.26-.2.37-.44.32-.71.23-1.07.56-1.41.06-.06.23-.23.37-.19.16.05.2.38.24.83.03.28.04.42.01.55-.08.34-.27.37-.28.63-.01.21.1.43.27.56.2.15.43.13.48.12.42-.05.73-.51.85-.88.3-.91-.64-1.88-.36-2.12.05-.04.13-.05.16-.06.23-.04.43.11.48.16.26.2.34.51.37.62.05.2.12.66.2.73.04.03.08.05.08.05.02.01.05.03.07.04.06.02.41.09.69-.01.5-.18.88-.92.68-1.34-.11-.23-.31-.22-.78-.52-.37-.24-.64-.5-.81-.69 0-.07.01-.14.02-.19.01-.03.02-.05.04-.07.09-.12.23-.16.31-.18.05-.01.1-.01.16-.01.32.1.77.38 1.47.43.26.02.46 0 .63-.13.2-.1.36-.37.29-.58zm-3.92-1.4c.95.93-.15 2.67-1.88 1.78-.64-1.65.66-2.96 1.88-1.78z"/></g></g></svg>