<svg id="_1" data-name="???? 1" xmlns="http://www.w3.org/2000/svg" viewBox="0 0 697.03 169.76"><defs><style>.cls-1{fill:#f2f1f1;fill-rule:evenodd}</style></defs><path class="cls-1" d="M422.17 169.76h-68.9l92.38-115.75 68.81-.02-92.29 115.77zM145.69 147.89H95.71l-14.22-27.6 21.87-48.35 43.02-24.75-11.58-25.91 83.82-.18 1.35 3.41-85.93 50.08 23.25 47.65-11.6 25.65zM60.39 148.19H0l45.73-103.3-13.05-23.72 23.55-.02v-.01l60.33-.01-56.17 127.06zM225.47 148.06h72.57l21.01-13.71 23.09-51.21-10.45-21.22h-67.46l-6.85 14.98 12.97.08 6.43 13.35-14.16 31.47-16.54 10.2-13.34-.04-7.27 16.1zM410.62 39.98h114.47L542.76 0 393.61.07l17.01 39.91zM522.75 72.93L555.2.02l141.59.02-12.74 13.36 12.98 22.28-91.42.05-7.78 16.57h63.56l13.54 27.73-31.45 72.03-25.36 16.91H502.27l-11.16-25.36 79.67.33 24.01-16.22 15.59-35.46-9.66-18.68-77.97-.65zM365.43 112.46l-15.42-29.48 39.1-23 15.07 29.8-38.75 22.68z"/><path class="cls-1" d="M555.55 135.58h-60.68l13.08-29.68h60.66l-13.06 29.68zM216.28 148.19h-60.39l45.64-100.96 44.88-26.14 27.34-.03-57.47 127.13zM350.84 63.76l-13.09-26.53h-62.91l7.62-16.21 86.95.11-18.57 42.63z"/></svg>